# AST/ASF file generated using VICON BodyLanguage
# -----------------------------------------------
:version 1.10
:name VICON
:units
  mass 1.0
  length 0.45
  angle deg
:documentation
   .ast/.asf automatically generated from VICON data using
   VICON BodyBuilder and BodyLanguage model FoxedUp or BRILLIANT.MOD
:root
   order TX TY TZ RX RY RZ
   axis XYZ
   position 0 0 0  
   orientation 0 -0 0 
:bonedata
  begin
     id 1 
     name lhipjoint
     direction 0.500677 -0.737119 0.453848 
     length 2.34727 
     axis 0 -0 0  XYZ
  end
  begin
     id 2 
     name lfemur
     direction 0.34202 -0.939693 0  
     length 7.53653  
     axis 0 -0 20  XYZ
    dof rx ry rz
    limits (-160.0 20.0)
           (-70.0 70.0)
           (-60.0 70.0)
  end
  begin
     id 3 
     name ltibia
     direction 0.34202 -0.939693 0   
     length 6.85572   
     axis 0 -0 20   XYZ
    dof rx
    limits (-10.0 170.0)
  end
  begin
     id 4 
     name lfoot
     direction 0.155313 -0.426718 0.890949   
     length 2.18324   
     axis -90 -1.13533e-015 20   XYZ
    dof rx rz
    limits (-45.0 90.0)
           (-70.0 20.0)
  end
  begin
     id 5 
     name ltoes
     direction 1.53474e-011 -4.21647e-011 1   
     length 1.06748   
     axis -90 -1.13533e-015 20   XYZ
    dof rx
    limits (-90.0 20.0)
  end
  begin
     id 6 
     name rhipjoint
     direction -0.632471 -0.659587 0.406111   
     length 2.62319  
     axis 0 -0 0  XYZ 
  end
  begin
     id 7 
     name rfemur
     direction -0.34202 -0.939693 0   
     length 7.21735   
     axis 0 -0 -20   XYZ
    dof rx ry rz
    limits (-160.0 20.0)
           (-70.0 70.0)
           (-70.0 60.0)
  end
  begin
     id 8 
     name rtibia
     direction -0.34202 -0.939693 0   
     length 7.02558   
     axis 0 -0 -20   XYZ
    dof rx
    limits (-10.0 170.0)
 end
 begin
     id 9 
     name rfoot
     direction -0.16057 -0.441164 0.882945   
     length 2.10014  
     axis -90 1.13533e-015 -20   XYZ
    dof rx rz
    limits (-45.0 90.0)
           (-20.0 70.0)
  end
  begin
     id 10 
     name rtoes
     direction -1.53553e-011 -4.2192e-011 1   
     length 1.02554   
     axis -90 1.13533e-015 -20   XYZ
    dof rx
    limits (-90.0 20.0)
  end
  begin
     id 11 
     name lowerback
     direction 0.0401429 0.998861 -0.0258085   
     length 1.80848   
     axis 0 -0 0   XYZ
    dof rx ry rz
    limits (-20.0 45.0)
           (-30.0 30.0)
           (-30.0 30.0)
  end
  begin
     id 12 
     name upperback
     direction -0.0130978 0.999914 -0.000352645   
     length 1.8116   
     axis 0 -0 0   XYZ
    dof rx ry rz
    limits (-20.0 45.0)
           (-30.0 30.0)
           (-30.0 30.0)
  end
  begin
     id 13 
     name thorax
     direction -0.0300198 0.999453 0.0138573   
     length 1.81778   
     axis 0 -0 0   XYZ
    dof rx ry rz
    limits (-20.0 45.0)
           (-30.0 30.0)
           (-30.0 30.0)
  end
  begin
     id 14 
     name lowerneck
     direction -0.0401726 0.999191 -0.00173647   
     length 2.10594   
     axis 0 -0 0   XYZ
    dof rx ry rz
    limits (-20.0 45.0)
           (-30.0 30.0)
           (-30.0 30.0)
  end
  begin
     id 15 
     name upperneck
     direction 0.0119835 0.998501 0.0534085   
     length 2.07325   
     axis 0 -0 0   XYZ
    dof rx ry rz
    limits (-20.0 45.0)
           (-30.0 30.0)
           (-30.0 30.0)
  end
  begin
     id 16
     name head
     direction 0.00628309 0.999826 0.0175921  
     length 2.15096  
     axis 0 -0 0   XYZ
    dof rx ry rz
    limits (-20.0 45.0)
           (-30.0 30.0)
           (-30.0 30.0)
  end
  begin
     id 17 
     name lclavicle
     direction 0.895501 0.429681 -0.115981  
     length 4.18092  
     axis 0 -0 0   XYZ
    dof ry rz
    limits (-20.0 10.0)
           (0.0 20.0)
  end
  begin
     id 18 
     name lhumerus
     direction 1 -4.48961e-011 -3.38433e-028   
     length 5.77237   
     axis 180 -30 -90   XYZ
    dof rx ry rz
    limits (-60.0 90.0)
           (-90.0 90.0)
           (-90.0 90.0)
  end
  begin
     id 19
     name lradius
     direction 1 -4.4901e-011 1.11983e-026   
     length 2.91878   
     axis 180 -30 -90   XYZ
    dof rx
    limits (-10.0 170.0)
  end
  begin
     id 20
     name lwrist
     direction 1 -4.48934e-011 1.88176e-026   
     length 1.45939   
     axis -1.23311e-014 90 90   XYZ
    dof ry
    limits (-180.0 0.0)
 end
  begin
     id 21 
     name lhand
     direction 1 -4.4895e-011 3.76352e-026   
     length 1.06566   
     axis -2.40147e-014 90 90   XYZ
    dof rx rz
    limits (-90.0 90.0)
           (-45.0 45.0)
  end
  begin
     id 22 
     name lfingers
     direction 1 -4.49005e-011 7.52705e-026   
     length 0.859162   
     axis -4.80295e-014 90 90   XYZ
    dof rx
    limits (0.0 90.0)
  end
  begin
     id 23
     name lthumb
     direction 0.707107 -6.34885e-011 0.707107   
     length 1.23359   
     axis -90 45 -9.86935e-015   XYZ
    dof rx rz
    limits (-45.0 45.0)
           (-45.0 45.0)
  end
  begin
     id 24 
     name rclavicle
     direction -0.91006 0.40451 -0.0903492   
     length 4.23293  
     axis 0 -0 0   XYZ 
    dof ry rz
    limits (-10.0 20.0)
           (-20.0 0.0)
  end
  begin
     id 25 
     name rhumerus
     direction -1 -4.4897e-011 1.7415e-027  
     length 5.49854   
     axis 180 30 90   XYZ
    dof rx ry rz
    limits (-90.0 60.0)
           (-90.0 90.0)
           (-90.0 90.0)
  end
  begin
     id 26 
     name rradius
     direction -1 -4.48963e-011 1.21259e-026   
     length 3.1186   
     axis 180 30 90   XYZ
    dof rx
    limits (-10.0 170.0)
  end
  begin
     id 27 
     name rwrist
     direction -1 -4.48967e-011 1.88176e-026   
     length 1.5593   
     axis -1.23311e-014 -90 -90   XYZ
    dof ry
    limits (-180.0 0.0)
  end
  begin
     id 28
     name rhand
     direction -1 -4.4895e-011 3.76352e-026   
     length 0.71207   
     axis -2.40147e-014 -90 -90   XYZ
    dof rx rz
    limits (-90.0 90.0)
           (-45.0 45.0)
  end
  begin
     id 29
     name rfingers
     direction -1 -4.49005e-011 7.52705e-026   
     length 0.574089   
     axis -4.80295e-014 -90 -90   XYZ
    dof rx
    limits (0.0 90.0)
  end
  begin
     id 30
     name rthumb
     direction -0.707107 -6.34982e-011 0.707107   
     length 0.824281   
     axis -90 -45 9.86935e-015   XYZ
    dof rx rz
    limits (-45.0 45.0)
           (-45.0 45.0)
  end
:hierarchy
  begin
    root lhipjoint rhipjoint lowerback
    lhipjoint lfemur
    lfemur ltibia
    ltibia lfoot
    lfoot ltoes
    rhipjoint rfemur
    rfemur rtibia
    rtibia rfoot
    rfoot rtoes
    lowerback upperback
    upperback thorax
    thorax lowerneck lclavicle rclavicle
    lowerneck upperneck
    upperneck head
    lclavicle lhumerus
    lhumerus lradius
    lradius lwrist
    lwrist lhand lthumb
    lhand lfingers
    rclavicle rhumerus
    rhumerus rradius
    rradius rwrist
    rwrist rhand rthumb
    rhand rfingers
  end

#!OML:ASF C:\ViconDB\ViconDB\414\Spring2016\042216\male.ASF
:FULLY-SPECIFIED
:DEGREES
140
root -25.4656 17.2356 13.1163 -160.079 74.957 -164.667
lowerback 0.0682082 -3.14462 7.53156
upperback -0.442253 -4.13261 0.894261
thorax -0.963032 -2.09624 -3.22907
lowerneck -3.02828 0.866536 -5.10445
upperneck -2.31187 1.45119 7.65693
head -0.304357 0.791346 3.37278
rclavicle 2.83951e-014 -3.27995e-015
rhumerus -36.0609 -15.0396 -81.4964
rradius 23.9696
rwrist 35.2887
rhand 14.1015 -20.4313
rfingers 7.12502
rthumb 39.0052 -45.9499
lclavicle 2.83951e-014 -3.27995e-015
lhumerus -29.3697 9.35949 88.3582
lradius 38.7799
lwrist -10.4644
lhand -6.98167 12.9352
lfingers 7.12502
lthumb 18.8884 42.0381
rfemur -22.2728 -6.19662 27.1107
rtibia 26.3979
rfoot -10.9913 -3.33659
rtoes -11.2195
lfemur -4.60031 -3.15194 -13.6458
ltibia 54.8169
lfoot -2.93592 4.72869
ltoes -5.04962
141
root -25.3091 17.2563 13.1177 -160.102 75.2703 -164.399
lowerback 0.281838 -3.10853 7.28835
upperback -0.385983 -4.06665 1.03446
thorax -0.989756 -2.05991 -2.94186
lowerneck -3.39173 0.978566 -5.18819
upperneck -1.94381 1.58857 7.34898
head -0.131287 0.866583 3.28724
rclavicle -4.47266e-015 -3.47873e-015
rhumerus -35.0638 -14.0247 -82.1034
rradius 24.1785
rwrist 34.8343
rhand 14.0672 -20.2253
rfingers 7.12502
rthumb 38.9729 -45.7531
lclavicle -4.47266e-015 -3.47873e-015
lhumerus -29.6714 10.7363 87.936
lradius 38.0489
lwrist -11.183
lhand -7.02722 12.8866
lfingers 7.12502
lthumb 18.8446 41.9938
rfemur -21.0472 -6.33394 27.1962
rtibia 25.7701
rfoot -11.3595 -2.93095
rtoes -11.4644
lfemur -5.89419 -2.88769 -13.6445
ltibia 56.8674
lfoot -5.15103 5.8571
ltoes -7.06116
142
root -25.1524 17.2895 13.1221 -159.729 75.6432 -163.798
lowerback 0.405714 -2.93484 7.50211
upperback -0.29442 -3.83382 0.751474
thorax -0.973551 -1.94547 -3.35422
lowerneck -3.56832 0.958942 -4.66217
upperneck -1.82565 1.54696 7.26287
head -0.0552824 0.847778 3.15858
rclavicle 7.11432e-014 1.2424e-016
rhumerus -34.1066 -14.0321 -83.0028
rradius 24.2647
rwrist 35.1046
rhand 13.3361 -20.2395
rfingers 7.12502
rthumb 38.2832 -45.9611
lclavicle 7.11432e-014 1.2424e-016
lhumerus -29.908 11.4834 87.0825
lradius 37.3149
lwrist -11.8811
lhand -7.05998 12.274
lfingers 7.12502
lthumb 18.8131 41.3842
rfemur -19.8316 -6.22458 27.3356
rtibia 25.0525
rfoot -11.6536 -2.75848
rtoes -10.7229
lfemur -7.31446 -2.5092 -13.5223
ltibia 58.7183
lfoot -7.33023 7.05895
ltoes -8.96653
143
root -24.9863 17.2996 13.1221 -160.552 76.0887 -164.216
lowerback 0.585896 -2.8269 7.1821
upperback -0.14966 -3.68674 0.670827
thorax -0.892733 -1.86561 -3.25969
lowerneck -3.87502 1.02056 -4.51789
upperneck -1.53274 1.61398 6.98123
head 0.089782 0.885389 3.03985
rclavicle 1.55301e-016 -9.44227e-015
rhumerus -33.0864 -13.5583 -83.6061
rradius 24.2482
rwrist 35.9219
rhand 12.9341 -19.6505
rfingers 7.12502
rthumb 37.9036 -45.4758
lclavicle 1.55301e-016 -9.44227e-015
lhumerus -30.3121 12.4464 86.561
lradius 36.7862
lwrist -12.454
lhand -7.3922 12.5881
lfingers 7.12502
lthumb 18.4936 41.729
rfemur -18.3972 -6.1783 27.1273
rtibia 24.4486
rfoot -11.6765 -2.32163
rtoes -12.0509
lfemur -8.34146 -2.27678 -13.7759
ltibia 60.2418
lfoot -8.93713 8.10704
ltoes -9.46227
144
root -24.8318 17.3154 13.1218 -159.808 76.4436 -163.292
lowerback 0.733128 -2.74163 7.12545
upperback -0.133452 -3.55752 0.837965
thorax -0.930297 -1.79967 -3.05286
lowerneck -4.25655 1.06954 -4.86994
upperneck -1.17061 1.68444 6.86374
head 0.265029 0.927671 3.07418
rclavicle 5.60014e-014 2.13694e-014
rhumerus -31.9705 -12.6226 -84.0579
rradius 24.3156
rwrist 35.6601
rhand 12.7461 -19.4057
rfingers 7.12502
rthumb 37.726 -45.279
lclavicle 5.60014e-014 2.13694e-014
lhumerus -30.717 13.918 86.1187
lradius 36.1106
lwrist -13.1345
lhand -7.37875 12.4796
lfingers 7.12502
lthumb 18.5065 41.6192
rfemur -17.3039 -5.85338 27.3089
rtibia 23.8611
rfoot -12.2239 -2.39831
rtoes -10.954
lfemur -9.81624 -1.66589 -13.6698
ltibia 61.6513
lfoot -9.7133 8.70432
ltoes -8.62333
145
root -24.6797 17.3218 13.1295 -159.253 76.8851 -162.434
lowerback 1.07934 -2.61972 7.02253
upperback -0.108728 -3.36747 0.846622
thorax -1.07234 -1.70813 -2.97629
lowerneck -4.6449 1.15803 -4.75896
upperneck -0.724187 1.78745 6.60466
head 0.47045 0.983538 2.97497
rclavicle 4.9808e-014 5.91384e-015
rhumerus -30.9479 -12.1229 -84.6236
rradius 24.3897
rwrist 35.5296
rhand 12.4942 -19.1096
rfingers 7.12502
rthumb 37.488 -45.0464
lclavicle 4.9808e-014 5.91384e-015
lhumerus -31.2674 14.7518 85.6258
lradius 35.6589
lwrist -13.2328
lhand -7.61617 12.9061
lfingers 7.12502
lthumb 18.2781 42.0674
rfemur -16.1602 -5.39994 27.4354
rtibia 23.4483
rfoot -12.6928 -2.46204
rtoes -10.6004
lfemur -11.0884 -1.15574 -13.5453
ltibia 62.7637
lfoot -10.5486 9.05981
ltoes -5.91521
146
root -24.535 17.3263 13.1283 -159.288 77.2475 -162.231
lowerback 1.42517 -2.54306 6.96865
upperback -0.0757929 -3.24238 0.691791
thorax -1.22525 -1.6512 -3.09468
lowerneck -4.90953 1.21114 -4.48524
upperneck -0.504462 1.84398 6.4659
head 0.585609 1.01538 2.88303
rclavicle 4.14342e-015 -3.23025e-015
rhumerus -29.8703 -11.8916 -85.3364
rradius 24.4989
rwrist 35.7581
rhand 12.5022 -18.9788
rfingers 7.12502
rthumb 37.4955 -44.9135
lclavicle 4.14342e-015 -3.23025e-015
lhumerus -31.7892 15.488 84.8578
lradius 35.1835
lwrist -13.4165
lhand -7.55123 12.7378
lfingers 7.12502
lthumb 18.3406 41.8932
rfemur -15.1068 -4.94226 27.3957
rtibia 23.0504
rfoot -13.0342 -2.60424
rtoes -10.4591
lfemur -12.4709 -0.834999 -13.6544
ltibia 63.6618
lfoot -11.3397 9.52932
ltoes -5.89648
147
root -24.3901 17.3287 13.1234 -159.264 77.6218 -161.955
lowerback 1.87122 -2.57339 6.88268
upperback -0.101752 -3.24557 0.696841
thorax -1.49771 -1.66107 -3.01961
lowerneck -5.25567 1.35843 -4.45972
upperneck -0.149511 2.03425 6.15936
head 0.749689 1.1117 2.78725
rclavicle 2.72319e-014 -2.48232e-014
rhumerus -28.8125 -10.8027 -86.0646
rradius 24.6233
rwrist 35.7339
rhand 12.4133 -19.7125
rfingers 7.12502
rthumb 37.4115 -45.6694
lclavicle 2.72319e-014 -2.48232e-014
lhumerus -32.4558 16.8274 84.1461
lradius 34.7701
lwrist -13.4579
lhand -7.51196 12.6935
lfingers 7.12502
lthumb 18.3784 41.8454
rfemur -14.0896 -4.48607 27.363
rtibia 22.7621
rfoot -13.423 -2.73749
rtoes -10.3464
lfemur -13.8044 -0.548175 -13.7812
ltibia 64.2717
lfoot -12.5559 10.0818
ltoes -6.10639
148
root -24.2483 17.326 13.1193 -158.908 78.0764 -161.486
lowerback 2.21316 -2.49834 6.79116
upperback -0.132813 -3.12042 0.629065
thorax -1.70759 -1.60587 -3.02776
lowerneck -5.62373 1.43104 -3.98576
upperneck 0.115489 2.10738 5.58559
head 0.900671 1.14575 2.51751
rclavicle 3.92957e-014 8.17502e-015
rhumerus -27.7319 -9.85544 -86.8756
rradius 24.8655
rwrist 35.1405
rhand 12.6243 -20.096
rfingers 7.12502
rthumb 37.611 -46.0001
lclavicle 3.92957e-014 8.17502e-015
lhumerus -33.057 17.5862 83.4212
lradius 34.2935
lwrist -14.1054
lhand -7.1844 12.5939
lfingers 7.12502
lthumb 18.6935 41.7157
rfemur -13.2907 -3.94736 27.3537
rtibia 22.5664
rfoot -13.8396 -2.83111
rtoes -10.0369
lfemur -15.201 -0.253403 -13.8868
ltibia 64.6199
lfoot -13.8162 10.493
ltoes -6.14231
149
root -24.1055 17.3241 13.1082 -158.438 78.4276 -160.926
lowerback 2.39034 -2.4923 6.77158
upperback -0.132739 -3.0947 0.733871
thorax -1.79753 -1.59407 -2.90207
lowerneck -5.68986 1.56541 -4.39715
upperneck 0.0172295 2.31877 5.5764
head 0.866727 1.25057 2.59456
rclavicle -3.80735e-014 -3.37934e-015
rhumerus -26.6122 -8.47691 -87.4323
rradius 25.1303
rwrist 34.2761
rhand 12.5695 -20.1677
rfingers 7.12502
rthumb 37.5591 -46.0855
lclavicle -3.80735e-014 -3.37934e-015
lhumerus -33.6639 18.6858 82.951
lradius 33.8859
lwrist -14.1886
lhand -7.31306 12.8431
lfingers 7.12502
lthumb 18.5697 41.9767
rfemur -12.5497 -3.86416 27.3856
rtibia 22.4221
rfoot -14.3776 -2.58797
rtoes -10.1834
lfemur -16.6378 -0.0359013 -14.0162
ltibia 64.7157
lfoot -14.6672 10.6821
ltoes -8.50024
